Coordinates
version=1
nRows=16
nColumns=40
inDegrees=yes

Units are S.I. units (second, meters, Newtons, ...)
Angles are in degrees.

endheader
time	pelvis_tilt	pelvis_list	pelvis_rotation	pelvis_tx	pelvis_ty	pelvis_tz	hip_flexion_r	hip_adduction_r	hip_rotation_r	knee_angle_r	knee_angle_r_beta	ankle_angle_r	subtalar_angle_r	mtp_angle_r	hip_flexion_l	hip_adduction_l	hip_rotation_l	knee_angle_l	knee_angle_l_beta	ankle_angle_l	subtalar_angle_l	mtp_angle_l	lumbar_extension	lumbar_bending	lumbar_rotation	arm_flex_r	arm_add_r	arm_rot_r	elbow_flex_r	pro_sup_r	wrist_flex_r	wrist_dev_r	arm_flex_l	arm_add_l	arm_rot_l	elbow_flex_l	pro_sup_l	wrist_flex_l	wrist_dev_l
     22.12000000	     -1.90769540	     -4.85543929	      3.44168900	      1.07272922	      0.92931766	      0.49558127	     10.58122004	      2.97838481	    -14.45648588	     19.78251511	     19.78251511	     12.66249234	     -4.26367107	     -3.09902623	     30.26336522	    -13.16748604	      0.69852848	     59.23564872	     59.23564872	      8.42999980	    -18.63370382	     12.60462191	    -11.18423155	      6.52420777	      2.84685688	     13.49560496	    -19.49300060	     -6.81038329	     60.59685711	     45.94848912	      0.00000000	      0.00000000	      8.50843282	    -11.45664287	     -7.40521753	     44.24282069	     45.84858191	      0.00000000	      0.00000000
     22.13335714	     -2.06692917	     -4.63033607	      3.91400990	      1.07158059	      0.92950872	      0.49633637	     10.21851043	      2.85817803	    -14.61779560	     19.40439725	     19.40439725	     12.80666608	     -4.49438569	     -3.07151478	     31.12633070	    -13.01019345	      0.15123899	     56.35515064	     56.35515064	      8.83362786	    -18.80800061	     12.91275473	    -11.15635336	      6.11056270	      2.46347564	     14.34598038	    -19.24688384	     -6.82669371	     61.89343024	     45.90216354	      0.00000000	      0.00000000	      7.51651631	    -11.56996809	     -7.42167417	     42.84303022	     45.83779748	      0.00000000	      0.00000000
     22.14671429	     -2.24067305	     -4.44895943	      4.37929798	      1.07042270	      0.92960674	      0.49701421	      9.88254849	      2.77619964	    -14.80129912	     19.04615633	     19.04615633	     12.95918811	     -4.70804019	     -3.08816120	     31.80619612	    -12.81171145	     -0.40824257	     53.17058915	     53.17058915	      9.15694076	    -18.88729379	     13.21843762	    -11.12813226	      5.78788714	      2.15059277	     15.13607591	    -19.14662323	     -6.77944573	     63.51272757	     45.84406649	      0.00000000	      0.00000000	      6.64220149	    -11.59504650	     -7.45453296	     41.25274005	     45.83046269	      0.00000000	      0.00000000
     22.16007143	     -2.42587720	     -4.37880646	      4.85115663	      1.06925429	      0.92953847	      0.49755709	      9.56423932	      2.80138644	    -15.01897987	     18.64858367	     18.64858367	     12.94257958	     -4.93038949	     -3.50454555	     32.34255937	    -12.61076254	     -0.86462200	     49.76615113	     49.76615113	      9.29819774	    -18.90679158	     13.08882394	    -11.12447865	      5.66213246	      2.86259293	     14.33693510	    -19.95481798	     -7.03095269	     67.90478558	     45.67256901	      0.00000000	      0.00000000	      7.61382847	    -10.93655001	     -8.03135653	     36.41276416	     45.94733964	      0.00000000	      0.00000000
     22.17342857	     -2.64865525	     -4.20906085	      5.28014583	      1.06804010	      0.92945125	      0.49795185	      9.33086479	      2.70070640	    -15.19668090	     18.35955341	     18.35955341	     13.10303835	     -5.12898085	     -3.49939508	     32.74712031	    -12.18658743	     -1.29635455	     46.21937085	     46.21937085	      9.48257949	    -18.82947743	     13.51584354	    -11.09062978	      5.31463278	      2.73299476	     15.18110381	    -19.99262646	     -7.16442056	     68.88884485	     45.64667016	      0.00000000	      0.00000000	      6.68676633	    -10.85964989	     -7.99712639	     35.61693865	     45.93149675	      0.00000000	      0.00000000
     22.18678571	     -2.69520863	     -4.05819371	      5.71845161	      1.06691564	      0.92955466	      0.49821979	      8.89277296	      2.62175446	    -15.46760518	     18.05111858	     18.05111858	     13.25450688	     -5.25544312	     -3.55123828	     32.81333698	    -11.67732585	     -1.54990625	     42.56900813	     42.56900813	      9.50976520	    -18.73129594	     13.76880218	    -11.28517267	      5.05019374	      2.13218624	     16.06661493	    -19.56395158	     -7.05598192	     70.97865552	     45.57371867	      0.00000000	      0.00000000	      5.87203680	    -11.02818821	     -7.96738383	     33.96155862	     45.92050738	      0.00000000	      0.00000000
     22.20014286	     -2.91928379	     -4.01329319	      6.09395200	      1.06570053	      0.92923786	      0.49828968	      8.68405713	      2.60539287	    -15.73337635	     17.77734540	     17.77734540	     13.34792346	     -5.19244513	     -3.89224047	     33.00341708	    -11.16495810	     -1.54747894	     38.93313956	     38.93313956	      9.10348397	    -18.48382306	     12.71538691	    -11.27402160	      4.94291430	      2.69650257	     15.80575470	    -20.33762629	     -6.84932633	     74.38641436	     45.44589264	      0.00000000	      0.00000000	      6.34087069	    -10.62217903	     -7.98426906	     30.55462415	     45.95660192	      0.00000000	      0.00000000
     22.21350000	     -3.09780348	     -3.93532833	      6.43387164	      1.06447151	      0.92898516	      0.49821027	      8.44519512	      2.56210073	    -15.91896903	     17.53829946	     17.53829946	     13.48138250	     -5.28045288	     -3.94892374	     33.12947300	    -10.54844288	     -1.30661866	     35.53118480	     35.53118480	      9.02530856	    -18.03620480	     12.73174595	    -11.30335403	      4.76318810	      2.46365897	     16.70381998	    -20.05387631	     -7.06813593	     75.88253020	     45.40661206	      0.00000000	      0.00000000	      5.55923190	    -10.56834698	     -7.94775857	     29.46231708	     45.94707031	      0.00000000	      0.00000000
     22.22685714	     -3.30064669	     -3.88915986	      6.72111400	      1.06328106	      0.92860782	      0.49799271	      8.24893050	      2.51208840	    -16.19686777	     17.33980136	     17.33980136	     13.64113459	     -5.15125503	     -4.15054530	     33.21221771	     -9.98282337	     -0.99547070	     32.25812191	     32.25812191	      8.53136247	    -17.33351939	     11.53623587	    -11.31651774	      4.62509159	      2.69064347	     17.00487127	    -20.26513968	     -6.98930899	     78.11848305	     45.33186032	      0.00000000	      0.00000000	      5.32923421	    -10.35100492	     -7.81885287	     27.66754712	     45.94724899	      0.00000000	      0.00000000
     22.24021429	     -3.48306217	     -3.82571022	      6.93105701	      1.06210962	      0.92829788	      0.49771484	      8.03451279	      2.46894923	    -16.28028875	     17.14294110	     17.14294110	     13.81649473	     -5.19886974	     -4.18547338	     33.30071867	     -9.44775499	     -0.61157903	     29.40649092	     29.40649092	      8.58247881	    -16.14439336	     11.64803073	    -11.34691894	      4.43028576	      2.65605261	     17.90846077	    -20.00535001	     -7.03152473	     79.21521990	     45.30148050	      0.00000000	      0.00000000	      4.51182695	    -10.27891821	     -7.76240728	     27.01376589	     45.92922298	      0.00000000	      0.00000000
     22.25357143	     -3.67544226	     -3.85738002	      7.10605551	      1.06095266	      0.92787847	      0.49729984	      7.85135090	      2.49741023	    -16.45764320	     16.96868253	     16.96868253	     13.96864613	     -5.07430642	     -4.24300992	     33.45820817	     -9.04654516	     -0.12980776	     26.98105415	     26.98105415	      8.61981129	    -14.74522224	     11.51071979	    -11.37551874	      4.37509480	      2.59500921	     18.80806649	    -19.79412626	     -6.90885999	     80.53794572	     45.25885635	      0.00000000	      0.00000000	      3.73599642	    -10.13205006	     -7.66473333	     26.31968267	     45.90590507	      0.00000000	      0.00000000
     22.26692857	     -3.87203451	     -3.87315609	      7.21021010	      1.05992627	      0.92745874	      0.49681486	      7.64813080	      2.50728950	    -16.58949856	     16.77181742	     16.77181742	     14.15622524	     -4.89057616	     -4.29560447	     33.61167773	     -8.71257089	      0.26392651	     24.95861632	     24.95861632	      8.59787071	    -13.22731696	     11.35869874	    -11.36540148	      4.28162023	      2.67059855	     19.62154659	    -19.58063477	     -6.71127810	     81.73367194	     45.21787275	      0.00000000	      0.00000000	      2.97066059	     -9.97800225	     -7.57298176	     25.74529871	     45.88229803	      0.00000000	      0.00000000
     22.28028571	     -4.08851691	     -3.95212796	      7.24767950	      1.05898307	      0.92696842	      0.49626042	      7.47738102	      2.57473507	    -16.69407300	     16.58787777	     16.58787777	     14.31969669	     -4.67950441	     -4.33458596	     33.82012911	     -8.49637269	      0.65643628	     23.40936990	     23.40936990	      8.52338927	    -11.85811391	     11.25750061	    -11.30849053	      4.26182975	      2.86151969	     20.43668617	    -19.41164510	     -6.54627000	     82.70663111	     45.18524208	      0.00000000	      0.00000000	      2.23913527	     -9.77222657	     -7.50178500	     25.32632639	     45.86038490	      0.00000000	      0.00000000
     22.29364286	     -4.26876739	     -4.04616801	      7.20950031	      1.05819583	      0.92652608	      0.49563803	      7.24478338	      2.66267564	    -16.75724066	     16.37906882	     16.37906882	     14.50456044	     -4.39078511	     -4.36590844	     33.97251917	     -8.37782756	      0.89109446	     22.28307305	     22.28307305	      8.37722561	    -10.67897120	     11.12261592	    -11.27804947	      4.25463287	      3.08665938	     21.23885788	    -19.17824213	     -6.34834313	     83.62978765	     45.15298628	      0.00000000	      0.00000000	      1.46132426	     -9.55674814	     -7.44125083	     24.99160146	     45.83800388	      0.00000000	      0.00000000
     22.30700000	     -4.33593924	     -4.17135541	      7.11230518	      1.05783509	      0.92612697	      0.49497502	      6.77282462	      2.78323728	    -17.03388858	     16.02284216	     16.02284216	     14.79800838	     -3.55698560	     -4.28196839	     33.98661708	     -8.43170492	      0.75523045	     21.60145737	     21.60145737	      7.93903859	     -9.48795692	      9.93003281	    -11.34674982	      4.30613212	      3.15770236	     21.94302972	    -18.98343254	     -5.39888871	     85.18176379	     45.08239639	      0.00000000	      0.00000000	      0.46294599	     -9.42810157	     -7.29424459	     24.94351748	     45.80505947	      0.00000000	      0.00000000
     22.32035714	     -4.44317670	     -4.25476094	      6.93001064	      1.05760907	      0.92574649	      0.49425294	      6.34974925	      2.89087293	    -16.95880801	     15.67336645	     15.67336645	     15.00555314	     -3.17319188	     -4.24253846	     33.91408893	     -8.42729395	      0.71919506	     21.17019951	     21.17019951	      7.50991359	     -9.06665159	      9.73152260	    -11.29183418	      4.29636201	      3.39052138	     22.65460439	    -18.52293755	     -5.18191342	     85.83175860	     45.06017114	      0.00000000	      0.00000000	     -0.37189617	     -9.24728549	     -7.25682467	     24.79597356	     45.78702752	      0.00000000	      0.00000000
